<?xml version="1.0" encoding="utf-8"?>
<!DOCTYPE svg PUBLIC "-//W3C//DTD SVG 1.1//EN" "http://www.w3.org/Graphics/SVG/1.1/DTD/svg11.dtd">
<svg version="1.1" xmlns="http://www.w3.org/2000/svg" xmlns:xlink="http://www.w3.org/1999/xlink" x="0px" y="0px"
	 width="60" height="60" viewBox="0 0 600 600" xml:space="preserve">
<g class="icon--instagram">
	<path class="instagram" fill="#fff" d="M300,79.424c70.847,0,79.234,0.27,107.216,1.547
		c25.867,1.181,39.917,5.503,49.267,9.136c12.387,4.814,21.224,10.564,30.509,19.848c9.285,9.285,15.036,18.12,19.849,30.507
		c3.633,9.35,7.955,23.4,9.135,49.268c1.275,27.979,1.547,36.369,1.547,107.217c0,70.847-0.271,79.238-1.547,107.216
		c-1.18,25.869-5.503,39.919-9.135,49.267c-4.813,12.384-10.563,21.222-19.849,30.509c-9.285,9.283-18.122,15.034-30.509,19.849
		c-9.351,3.633-23.399,7.955-49.267,9.135c-27.977,1.277-36.363,1.546-107.216,1.546s-79.24-0.269-107.215-1.546
		c-25.868-1.18-39.918-5.503-49.269-9.135c-12.383-4.814-21.223-10.565-30.508-19.849c-9.284-9.287-15.033-18.125-19.846-30.509
		c-3.633-9.348-7.957-23.397-9.137-49.267c-1.276-27.979-1.547-36.369-1.547-107.216c0-70.848,0.271-79.238,1.547-107.217
		c1.18-25.868,5.504-39.918,9.137-49.268c4.813-12.386,10.562-21.222,19.846-30.507c9.285-9.284,18.125-15.034,30.508-19.848
		c9.351-3.633,23.401-7.956,49.269-9.136C220.765,79.694,229.153,79.424,300,79.424 M300,31.617
		c-72.061,0-81.096,0.305-109.395,1.598c-28.242,1.288-47.529,5.775-64.406,12.333C108.751,52.328,93.956,61.4,79.206,76.15
		s-23.825,29.549-30.603,46.994c-6.562,16.881-11.047,36.166-12.335,64.409c-1.292,28.301-1.596,37.335-1.596,109.393
		c0,72.061,0.304,81.094,1.596,109.393c1.288,28.244,5.773,47.529,12.335,64.408c6.778,17.447,15.853,32.245,30.603,46.996
		s29.546,23.822,46.994,30.603c16.877,6.559,36.164,11.043,64.406,12.334c28.299,1.29,37.335,1.597,109.395,1.597
		s81.096-0.307,109.394-1.597c28.243-1.291,47.53-5.775,64.407-12.334c17.447-6.78,32.244-15.852,46.997-30.603
		c14.749-14.751,23.821-29.549,30.602-46.996c6.562-16.878,11.045-36.164,12.334-64.408c1.291-28.299,1.595-37.332,1.595-109.393
		c0-72.059-0.304-81.093-1.595-109.393c-1.288-28.243-5.772-47.528-12.334-64.408c-6.78-17.445-15.852-32.244-30.602-46.994
		c-14.753-14.751-29.55-23.823-46.997-30.603c-16.877-6.558-36.164-11.045-64.407-12.333C381.096,31.922,372.06,31.617,300,31.617"
		/>
	<path class="instagram" fill="#fff" d="M300,160.698c-75.249,0-136.25,60.999-136.25,136.248
		c0,75.248,61.001,136.248,136.25,136.248c75.247,0,136.249-61,136.249-136.248C436.249,221.697,375.247,160.698,300,160.698
		 M300,385.388c-48.846,0-88.443-39.596-88.443-88.442c0-48.847,39.598-88.443,88.443-88.443c48.848,0,88.442,39.596,88.442,88.443
		C388.442,345.792,348.848,385.388,300,385.388"/>
	<path class="instagram" fill="#fff" d="M473.473,155.314c0,17.583-14.253,31.838-31.841,31.838
		c-17.583,0-31.838-14.255-31.838-31.838c0-17.587,14.255-31.841,31.838-31.841C459.22,123.474,473.473,137.728,473.473,155.314"/>
</g>
</svg>