<?xml version="1.0" encoding="utf-8"?>
<!DOCTYPE svg PUBLIC "-//W3C//DTD SVG 1.1//EN" "http://www.w3.org/Graphics/SVG/1.1/DTD/svg11.dtd">
<svg version="1.1" xmlns="http://www.w3.org/2000/svg" xmlns:xlink="http://www.w3.org/1999/xlink" x="0px" y="0px"
	 width="60" height="60" viewBox="0 0 600 600" xml:space="preserve">
<g class="icon--linkedin">
	<rect fill="#fff" class="linkedin" x="69.252" y="220.896" width="94.75" height="300.197"/>
	<path fill="#fff" class="linkedin" d="M422.952,217.996c-54.295,0-88.294,29.388-94.619,49.945v-47.177H221.854
		c1.318,25.038,0,300.197,0,300.197h106.479V358.606c-0.738-8.238,0.02-16.543,2.24-24.511
		c7.484-21.944,28.077-36.713,51.263-36.768c36.898,0,53.767,27.806,53.767,68.395v155.37h107.401V354.126
		c0-93.037-52.712-136.13-120.185-136.13"/>
	<path fill="#fff" class="linkedin" d="M114.848,79.1c-34.922,0-57.852,22.534-57.852,52.712
		c0.578,29.106,24.642,52.233,53.748,51.655c0.93-0.018,1.859-0.061,2.786-0.129h0.659c35.581,0,57.852-23.061,57.852-52.712
		c-0.549-29.107-24.59-52.257-53.698-51.709C117.177,78.939,116.011,79,114.848,79.1"/>
</g>
</svg>