<?xml version="1.0" encoding="utf-8"?>
<!DOCTYPE svg PUBLIC "-//W3C//DTD SVG 1.1//EN" "http://www.w3.org/Graphics/SVG/1.1/DTD/svg11.dtd">
<svg version="1.1" xmlns="http://www.w3.org/2000/svg" xmlns:xlink="http://www.w3.org/1999/xlink" x="0px" y="0px"
	 width="60" height="60" viewBox="0 0 600 600" xml:space="preserve">
<g class="icon--pinterest">
	<path fill="#fff" class="pinterest" d="M272.097,23.018C179.45,33.353,87.098,108.321,83.243,215.411
		c-2.374,65.406,16.197,114.503,78.411,128.284c26.99-47.661-8.691-58.132-14.258-92.65
		C124.581,109.804,310.334,13.437,407.521,112.06c67.279,68.308,22.973,278.357-85.507,256.545
		c-103.917-20.874,50.876-188.103-32.077-220.93c-67.439-26.694-103.233,81.606-71.294,135.424
		c-18.73,92.532-59.088,179.683-42.753,295.76c52.998-38.463,70.86-112.063,85.506-188.854
		c26.626,16.174,40.862,32.989,74.831,35.636c125.294,9.675,195.287-125.065,178.177-249.403
		C499.232,66,389.27,9.901,272.097,23.018"/>
</g>
</svg>