<?xml version="1.0" encoding="utf-8"?>
<!DOCTYPE svg PUBLIC "-//W3C//DTD SVG 1.1//EN" "http://www.w3.org/Graphics/SVG/1.1/DTD/svg11.dtd">
<svg version="1.1" xmlns="http://www.w3.org/2000/svg" xmlns:xlink="http://www.w3.org/1999/xlink" x="0px" y="0px"
	 width="60" height="60" viewBox="0 0 600 600" xml:space="preserve">
<g class="icon--twitter">
	<path class="twitter" fill="#fff" d="M563.762,149.352c-19.399,8.609-40.261,14.428-62.149,17.049
		c22.339-13.4,39.493-34.607,47.573-59.872c-20.907,12.406-44.062,21.406-68.724,26.257c-19.732-21.028-47.86-34.172-78.987-34.172
		c-59.771,0-108.218,48.45-108.218,108.218c0,8.485,0.948,16.748,2.801,24.663c-89.945-4.507-169.688-47.605-223.066-113.073
		c-9.316,15.976-14.652,34.564-14.652,54.401c0,37.551,19.098,70.67,48.145,90.084c-17.74-0.555-34.43-5.425-49.021-13.536
		c-0.017,0.455-0.017,0.906-0.017,1.358c0,52.444,37.309,96.174,86.813,106.124c-9.074,2.473-18.632,3.78-28.503,3.78
		c-6.981,0-13.749-0.66-20.369-1.929c13.782,42.993,53.741,74.286,101.106,75.162c-37.068,29.031-83.724,46.323-134.432,46.323
		c-8.729,0-17.35-0.515-25.823-1.509c47.913,30.705,104.791,48.615,165.914,48.615c199.055,0,307.894-164.898,307.894-307.922
		c0-4.689-0.108-9.347-0.305-13.988c21.136-15.271,39.481-34.326,53.998-56.033"/>
</g>
</svg>