<?xml version="1.0" encoding="utf-8"?>
<!-- Generator: Adobe Illustrator 15.1.0, SVG Export Plug-In  -->
<!DOCTYPE svg PUBLIC "-//W3C//DTD SVG 1.1//EN" "http://www.w3.org/Graphics/SVG/1.1/DTD/svg11.dtd" [
	<!ENTITY ns_flows "http://ns.adobe.com/Flows/1.0/">
]>
<svg version="1.1"
	 xmlns="http://www.w3.org/2000/svg" xmlns:xlink="http://www.w3.org/1999/xlink" xmlns:a="http://ns.adobe.com/AdobeSVGViewerExtensions/3.0/"
	 x="0px" y="0px" width="366px" height="366px" viewBox="-33.696 0 366 366" enable-background="new -33.696 0 366 366"
	 xml:space="preserve">
<defs>
</defs>
<path fill="#FFFFFF" d="M219.585,34v77c-4.021,5.672-7.313,8.832-10.948,8.832c-2.416,0-3.607-1.025-4.052-3.832v-7V34h-19v80
	c0,6.941,0.875,11.667,2.108,14.693c2.031,4.978,6.086,7.733,11.927,7.733c6.655,0,12.762-4.17,19.965-12.426v11h19V34H219.585z"/>
<path fill="#FFFFFF" d="M144.585,33.264c-9.055,0-15.945,2.828-21,9.736c-3.893,5.102-5.981,13.295-5.981,24.088L117.585,103
	c0,10.733,1.858,18.149,5.751,23.201c5.054,6.887,13.249,10.535,21.249,10.535s16.339-3.648,21.4-10.535
	c3.832-5.052,5.601-12.468,5.601-23.201V67c0-10.793-2.168-18.898-6-24C160.522,36.092,152.585,33.264,144.585,33.264
	 M144.584,119.962c-5.9,0-8.999-4.962-7.999-14.962V65c-1-10,2.101-14.687,8-14.687c5.898,0,9.012,4.687,8.012,14.687l-0.012,40
	C153.585,115,150.483,119.962,144.584,119.962"/>
<path fill="#FFFFFF" d="M100.585,0L86.621,52.675L72.585,0h-21c4.275,12.569,25,80,25,80v55h20V80l25-80H100.585z"/>
<path fill="#FFFFFF" d="M254.585,253.084c0-9.243-2.39-12.02-8.392-12.02c-6.047,0-8.608,2.549-8.608,11.895v11.061l17-0.02V253.084
	z"/>
<path fill="#FFFFFF" d="M180.007,241.064c-2.979,0-6.396,1.57-9.422,4.561l-0.021,60.646c3.026,3.025,6.461,4.562,9.441,4.562
	c5.222,0,7.578-3.832,7.578-13.832v-43C187.585,244,185.229,241.064,180.007,241.064"/>
<path fill="#FFFFFF" d="M295.626,201.908c0,0-2.918-20.485-11.871-29.507c-11.354-11.839-24.084-11.898-29.92-12.59
	c-41.785-3.007-104.465-3.007-104.465-3.007h-0.131c0,0-62.682,0-104.467,3.007c-5.838,0.692-18.562,0.751-29.92,12.59
	C5.9,181.423,2.986,201.908,2.986,201.908S0,225.963,0,250.02v22.555c0,24.055,2.986,48.107,2.986,48.107
	s2.914,20.484,11.867,29.506c11.358,11.844,26.281,11.465,32.926,12.705c23.889,2.283,101.525,2.988,101.525,2.988
	s62.746-0.094,104.531-3.1c5.836-0.693,18.565-0.752,29.92-12.594c8.953-9.021,11.871-29.506,11.871-29.506
	s2.981-24.057,2.981-48.109V250.02C298.609,225.963,295.626,201.908,295.626,201.908 M65.586,326h-20V211h-21v-18.979l63-0.021v19
	h-22V326z M137.586,326h-19v-11c-7.203,8.256-13.309,12.426-19.965,12.426c-5.84,0-9.896-2.755-11.926-7.732
	c-1.234-3.024-2.109-7.752-2.109-14.691v-79h19v74v7c0.443,2.809,1.634,3.832,4.05,3.832c3.637,0,6.928-3.16,10.95-8.832v-76h19V326
	z M206.585,296c0,9.242-0.791,15.764-2,20c-2.416,7.43-7.685,11.289-14.894,11.289c-6.438,0-13.032-3.873-19.083-11.357L170.585,326
	h-18V192h18l-0.021,43.688c5.849-7.193,12.469-11.291,19.128-11.291c7.209,0,12.056,4.166,14.472,11.647
	c1.209,4.021,2.422,10.491,2.422,19.956V296z M246.363,310.832c4.457,0,7.055-2.424,8.088-7.264
	c0.168-0.986,0.136-5.305,0.136-12.568h18.999v2.834c0,5.834-0.48,9.963-0.643,11.775c-0.611,4.014-2.033,7.645-4.234,10.848
	c-5.008,7.256-12.438,10.832-21.896,10.832c-9.471,0-16.68-3.408-21.914-10.236c-3.846-5-6.313-12.434-6.313-23.053v-35
	c0-10.682,2.244-18.936,6.091-23.99c5.235-6.838,12.444-10.458,21.687-10.458c9.082,0,16.291,3.62,21.365,10.458
	c3.785,5.055,5.891,12.867,5.891,23.547L273.621,279h-36.035v17.958C237.523,306.188,240.148,310.832,246.363,310.832"/>
</svg>
